<?xml version="1.0" encoding="utf-8"?>
<!-- Generator: Adobe Illustrator 24.0.1, SVG Export Plug-In . SVG Version: 6.00 Build 0)  -->
<svg version="1.1" id="Layer_1" xmlns="http://www.w3.org/2000/svg" xmlns:xlink="http://www.w3.org/1999/xlink" x="0px" y="0px"
	 viewBox="0 0 2834.6 1984.2" style="enable-background:new 0 0 2834.6 1984.2;" xml:space="preserve">
<style type="text/css">
	.st0{fill:#0061AF;}
	.st1{fill:#FFCB05;}
	.st2{fill:#389954;}
</style>
<rect class="st0" width="2834.6" height="1984.2"/>
<path class="st1" d="M1984.2,989.7l-274-50c53.7-44.8,100.5-96.5,156.8-119.9c45.5-19.1,83.7-14.4,83.7-14.4v-2.4
	c0,0-50.2-35.9-134-16.7c-40.1,7.6-97.1,30.6-158.6,43.1L1821.6,595l-4.8-4.8L1588,748.5c7.2-69.9,4.4-140,27.8-196.5
	c19.1-45.5,47.8-69.4,47.8-69.4v-2.4c0,0-62.2,9.6-110,83.7c-21.4,35-45.9,93.7-81.3,146.5l-50.2-285.3h-7.2l-50,274
	c-44.8-53.7-96.5-100.5-119.9-156.8c-19.1-45.5-14.4-83.7-14.4-83.7h-2.4c0,0-35.9,50.2-16.7,134c7.8,40.9,31.4,99.1,43.8,161.9
	l-237.6-164.3l-4.8,4.8l157.6,226.1c-68.8-6.8-137.7-4.4-193.5-27.5c-45.5-19.1-69.4-47.8-69.4-47.8h-2.4c0,0,9.6,62.2,83.7,110
	c35.1,21.5,94.2,46.1,147.2,81.8l-286,52.2v7.2l273.4,48.1c-53.4,44.7-100.1,96.1-156.1,119.3c-45.5,19.1-83.7,14.4-83.7,14.4v2.4
	c0,0,50.2,35.9,134,16.7c40.9-7.8,99.1-31.4,161.9-43.8l-164.3,237.6l4.8,4.8l226.1-157.6c-6.8,68.8-4.4,137.7-27.5,193.5
	c-19.1,45.5-47.8,69.4-47.8,69.4v2.4c0,0,62.2-9.6,110-83.7c21.5-35.1,46.1-94.2,81.8-147.2l52.2,286h7.2l48.1-273.4
	c44.7,53.4,96.1,100.1,119.3,156.1c19.1,45.4,14.4,83.7,14.4,83.7h2.4c0,0,35.9-50.2,16.7-134c-7.6-40.1-30.6-97.1-43.1-158.6
	l234.5,163.4l4.8-4.8l-158.3-228.8c69.9,7.2,140,4.4,196.5,27.8c45.4,19.1,69.4,47.8,69.4,47.8h2.4c0,0-9.6-62.2-83.7-110
	c-35-21.4-93.7-45.9-146.5-81.3l285.3-50.2V989.7z"/>
<polygon class="st2" points="0,0 0,1984.3 2834.6,1984.3 "/>
</svg>